# xmcd
#
# Track frame offsets: 
#        150
#        12889
#        24253
#        36332
#        53776
#        66236
#        81736
#        91987
#        105363
#        117500
#        127602
#        141675
#        152647
#        167996
#        180392
#
# Disc length: 2632 seconds
#
# Revision: 0
# Processed by: cddbd v1.5.2PL0 Copyright (c) Steve Scherf et al.
# Submitted via: ExactAudioCopy v1.3
#
DISCID=c50a460f
DTITLE=Various Artist - Country Crossovers
DYEAR=2008
DGENRE=Country
TTITLE0=Bill Anderson - Still
TTITLE1=The Kendalls - Heavens Just A Sin Away
TTITLE2=Johnny Lee - Hey Bartender 
TTITLE3=Deborah Allen - Baby I Lied 
TTITLE4=Bill Anderson - Po Fours
TTITLE5=Holly Dunn - Daddys Hands
TTITLE6=Dave Dudley - Six Days On The Road
TTITLE7=Deborah Allen - Ive Been Wrong Before 
TTITLE8=Bill Anderson - Tips Of My Fingers
TTITLE9=Faron Young - Hello Walls 
TTITLE10=Holly Dunn - Love Somebody Like Me
TTITLE11=Bill Anderson - Wild Weekend 
TTITLE12=Barbara Fairchild - Slippin Away
TTITLE13=Billie Jo Spears - Misty Blue
TTITLE14=Lyn Anderson - Blue Bayou
EXTD=
EXTT0=
EXTT1=
EXTT2=
EXTT3=
EXTT4=
EXTT5=
EXTT6=
EXTT7=
EXTT8=
EXTT9=
EXTT10=
EXTT11=
EXTT12=
EXTT13=
EXTT14=
PLAYORDER=
